#N canvas 4 0 1920 966 12;
#X obj 244 53 pix_video;
#X obj 174 179 pix_texture;
#X obj 69 60 gemwin;
#X obj 244 20 gemhead;
#X obj 17 26 tgl 19 0 empty empty empty 0 -10 0 12 #fcfcfc #000000 #000000 0 1;
#X msg 72 17 create;
#X msg 145 20 destroy;
#X obj 245 86 pix_grey;
#X obj 245 123 pix_blob;
#X obj 174 237 square 3;
#X floatatom 278 182 5 0 0 0 - - - 0;
#X floatatom 326 183 5 0 0 0 - - - 0;
#X floatatom 376 185 5 0 0 0 - - - 0;
#X obj 294 268 osc~;
#X obj 358 266 osc~;
#X obj 423 269 osc~;
#X obj 294 302 *~ 0.05;
#X obj 358 303 *~ 0.05;
#X obj 423 303 *~ 0.05;
#X obj 293 340 dac~;
#X obj 358 340 dac~;
#X obj 424 338 dac~;
#X obj 666 141 metro 10000;
#X obj 666 103 tgl 19 0 empty empty empty 0 -10 0 12 #fcfcfc #000000 #000000 0 1;
#X obj 666 183 bng 19 250 50 0 empty empty empty 0 -10 0 12 #fcfcfc #000000 #000000;
#X obj 577 242 phasor~;
#X obj 577 327 *~, f 5;
#X floatatom 577 127 5 0 0 0 - - - 0;
#X obj 577 157 mtof;
#X floatatom 577 181 5 0 0 0 - - - 0;
#X obj 666 273 line 0 3;
#X floatatom 666 302 5 0 0 0 - - - 0;
#X msg 666 240 0.1 300;
#X msg 748 231 0 700;
#X obj 748 202 delay 2000;
#X obj 1798 919 catch~ out;
#X obj 1800 975 dac~;
#X obj 577 368 throw~ out;
#X floatatom 741 109 5 0 0 0 - - - 0;
#X floatatom 837 162 5 0 0 0 - - - 0;
#X text 576 105 note;
#X obj 577 280 lop~ 6000;
#X obj 294 226 * 440;
#X obj 357 227 * 440;
#X obj 423 229 * 440;
#X obj 1812 15 loadbang;
#X obj 1812 46 bng 19 250 50 0 empty empty empty 0 -10 0 12 #fcfcfc #000000 #000000;
#X obj 1812 79 s randomize;
#X obj 741 32 r randomize;
#X obj 837 81 r randomize;
#X obj 837 129 + 1000;
#X text 738 11 loop length;
#X text 839 60 note length;
#X obj 1068 146 metro 10000;
#X obj 1068 108 tgl 19 0 empty empty empty 0 -10 0 12 #fcfcfc #000000 #000000 0 1;
#X obj 1068 188 bng 19 250 50 0 empty empty empty 0 -10 0 12 #fcfcfc #000000 #000000;
#X obj 979 247 phasor~;
#X obj 975 333 *~, f 5;
#X floatatom 975 133 5 0 0 0 - - - 0;
#X obj 975 163 mtof;
#X floatatom 975 187 5 0 0 0 - - - 0;
#X obj 1068 278 line 0 3;
#X floatatom 1068 307 5 0 0 0 - - - 0;
#X msg 1068 245 0.1 300;
#X msg 1150 236 0 700;
#X obj 1150 207 delay 2000;
#X obj 979 373 throw~ out;
#X floatatom 1143 114 5 0 0 0 - - - 0;
#X floatatom 1239 167 5 0 0 0 - - - 0;
#X text 974 111 note;
#X obj 979 285 lop~ 6000;
#X obj 1143 37 r randomize;
#X obj 1239 86 r randomize;
#X obj 1239 134 + 1000;
#X obj 1143 85 + 10000;
#X text 1140 16 loop length;
#X text 1241 65 note length;
#X obj 1476 140 metro 10000;
#X obj 1476 102 tgl 19 0 empty empty empty 0 -10 0 12 #fcfcfc #000000 #000000 0 1;
#X obj 1476 182 bng 19 250 50 0 empty empty empty 0 -10 0 12 #fcfcfc #000000 #000000;
#X obj 1387 241 phasor~;
#X obj 1387 326 *~, f 5;
#X floatatom 1387 126 5 0 0 0 - - - 0;
#X obj 1387 156 mtof;
#X floatatom 1387 180 5 0 0 0 - - - 0;
#X obj 1476 272 line 0 3;
#X floatatom 1476 301 5 0 0 0 - - - 0;
#X msg 1476 239 0.1 300;
#X msg 1558 230 0 700;
#X obj 1558 201 delay 2000;
#X obj 1387 367 throw~ out;
#X floatatom 1551 108 5 0 0 0 - - - 0;
#X floatatom 1647 161 5 0 0 0 - - - 0;
#X text 1386 104 note;
#X obj 1387 279 lop~ 6000;
#X obj 1551 31 r randomize;
#X obj 1647 80 r randomize;
#X obj 1647 128 + 1000;
#X obj 1551 79 + 10000;
#X text 1548 10 loop length;
#X text 1649 59 note length;
#X obj 130 562 metro 10000;
#X obj 130 524 tgl 19 0 empty empty empty 0 -10 0 12 #fcfcfc #000000 #000000 0 1;
#X obj 130 604 bng 19 250 50 0 empty empty empty 0 -10 0 12 #fcfcfc #000000 #000000;
#X obj 41 663 phasor~;
#X obj 41 748 *~, f 5;
#X floatatom 41 548 5 0 0 0 - - - 0;
#X obj 41 578 mtof;
#X floatatom 41 602 5 0 0 0 - - - 0;
#X obj 130 694 line 0 3;
#X floatatom 130 723 5 0 0 0 - - - 0;
#X msg 130 661 0.1 300;
#X msg 212 652 0 700;
#X obj 212 623 delay 2000;
#X obj 41 789 throw~ out;
#X floatatom 205 530 5 0 0 0 - - - 0;
#X floatatom 301 583 5 0 0 0 - - - 0;
#X text 40 526 note;
#X obj 41 701 lop~ 6000;
#X obj 205 453 r randomize;
#X obj 205 477 random 30000;
#X obj 301 502 r randomize;
#X obj 301 550 + 1000;
#X text 202 432 loop length;
#X text 303 481 note length;
#X obj 634 578 metro 10000;
#X obj 634 540 tgl 19 0 empty empty empty 0 -10 0 12 #fcfcfc #000000 #000000 0 1;
#X obj 634 620 bng 19 250 50 0 empty empty empty 0 -10 0 12 #fcfcfc #000000 #000000;
#X obj 545 679 phasor~;
#X obj 545 764 *~, f 5;
#X floatatom 545 564 5 0 0 0 - - - 0;
#X obj 545 594 mtof;
#X floatatom 545 618 5 0 0 0 - - - 0;
#X obj 634 710 line 0 3;
#X floatatom 634 739 5 0 0 0 - - - 0;
#X msg 634 677 0.1 300;
#X msg 716 668 0 700;
#X obj 716 639 delay 2000;
#X obj 545 805 throw~ out;
#X floatatom 709 546 5 0 0 0 - - - 0;
#X floatatom 805 599 5 0 0 0 - - - 0;
#X text 544 542 note;
#X obj 545 717 lop~ 6000;
#X obj 709 469 r randomize;
#X obj 805 518 r randomize;
#X text 706 448 loop length;
#X text 807 497 note length;
#X obj 1061 573 metro 10000;
#X obj 1061 535 tgl 19 0 empty empty empty 0 -10 0 12 #fcfcfc #000000 #000000 0 1;
#X obj 1061 615 bng 19 250 50 0 empty empty empty 0 -10 0 12 #fcfcfc #000000 #000000;
#X obj 972 674 phasor~;
#X obj 972 759 *~, f 5;
#X floatatom 972 559 5 0 0 0 - - - 0;
#X obj 972 589 mtof;
#X floatatom 972 613 5 0 0 0 - - - 0;
#X obj 1061 705 line 0 3;
#X floatatom 1061 734 5 0 0 0 - - - 0;
#X msg 1061 672 0.1 300;
#X msg 1143 663 0 700;
#X obj 1143 634 delay 2000;
#X obj 972 800 throw~ out;
#X floatatom 1136 541 5 0 0 0 - - - 0;
#X floatatom 1232 594 5 0 0 0 - - - 0;
#X text 971 537 note;
#X obj 972 712 lop~ 6000;
#X obj 1136 464 r randomize;
#X obj 1232 513 r randomize;
#X obj 1232 561 + 1000;
#X text 1133 443 loop length;
#X text 1234 492 note length;
#X obj 1478 574 metro 10000;
#X obj 1478 536 tgl 19 0 empty empty empty 0 -10 0 12 #fcfcfc #000000 #000000 0 1;
#X obj 1478 616 bng 19 250 50 0 empty empty empty 0 -10 0 12 #fcfcfc #000000 #000000;
#X obj 1389 675 phasor~;
#X obj 1389 760 *~, f 5;
#X floatatom 1389 560 5 0 0 0 - - - 0;
#X obj 1389 590 mtof;
#X floatatom 1389 614 5 0 0 0 - - - 0;
#X obj 1478 706 line 0 3;
#X floatatom 1478 735 5 0 0 0 - - - 0;
#X msg 1478 673 0.1 300;
#X msg 1560 664 0 700;
#X obj 1560 635 delay 2000;
#X obj 1389 801 throw~ out;
#X floatatom 1553 542 5 0 0 0 - - - 0;
#X floatatom 1649 595 5 0 0 0 - - - 0;
#X text 1388 538 note;
#X obj 1389 713 lop~ 6000;
#X obj 1553 465 r randomize;
#X obj 1649 514 r randomize;
#X obj 1649 562 + 1000;
#X text 1550 444 loop length;
#X text 1651 493 note length;
#X obj 741 56 random 1000;
#X obj 1143 61 random 1000;
#X obj 1551 55 random 1000;
#X obj 1553 489 random 1000;
#X obj 1136 488 random 1000;
#X obj 709 493 random 1000;
#X obj 805 542 random 500;
#X obj 1232 537 random 500;
#X obj 1649 538 random 500;
#X obj 805 566 + 300;
#X obj 741 80 + 5000;
#X obj 205 501 + 5000;
#X obj 709 517 + 5000;
#X obj 1136 512 + 5000;
#X obj 1553 513 + 5000;
#X obj 1647 104 random 500;
#X obj 1239 110 random 500;
#X obj 837 105 random 500;
#X obj 301 526 random 500;
#X connect 0 0 7 0;
#X connect 1 0 9 0;
#X connect 3 0 0 0;
#X connect 4 0 2 0;
#X connect 5 0 2 0;
#X connect 6 0 2 0;
#X connect 7 0 8 0;
#X connect 8 0 1 0;
#X connect 8 1 10 0;
#X connect 8 2 11 0;
#X connect 8 3 12 0;
#X connect 10 0 42 0;
#X connect 11 0 43 0;
#X connect 12 0 44 0;
#X connect 13 0 16 0;
#X connect 14 0 17 0;
#X connect 15 0 18 0;
#X connect 16 0 19 0;
#X connect 16 0 19 1;
#X connect 17 0 20 0;
#X connect 17 0 20 1;
#X connect 18 0 21 0;
#X connect 18 0 21 1;
#X connect 22 0 24 0;
#X connect 23 0 22 0;
#X connect 24 0 32 0;
#X connect 24 0 34 0;
#X connect 25 0 41 0;
#X connect 26 0 37 0;
#X connect 27 0 28 0;
#X connect 28 0 29 0;
#X connect 29 0 25 0;
#X connect 30 0 31 0;
#X connect 31 0 26 1;
#X connect 32 0 30 0;
#X connect 33 0 30 0;
#X connect 34 0 33 0;
#X connect 35 0 36 0;
#X connect 35 0 36 1;
#X connect 38 0 22 1;
#X connect 39 0 34 1;
#X connect 41 0 26 0;
#X connect 42 0 13 0;
#X connect 43 0 14 0;
#X connect 44 0 15 0;
#X connect 45 0 46 0;
#X connect 46 0 47 0;
#X connect 48 0 193 0;
#X connect 49 0 210 0;
#X connect 50 0 39 0;
#X connect 53 0 55 0;
#X connect 54 0 53 0;
#X connect 55 0 63 0;
#X connect 55 0 65 0;
#X connect 56 0 70 0;
#X connect 57 0 66 0;
#X connect 58 0 59 0;
#X connect 59 0 60 0;
#X connect 60 0 56 0;
#X connect 61 0 62 0;
#X connect 62 0 57 1;
#X connect 63 0 61 0;
#X connect 64 0 61 0;
#X connect 65 0 64 0;
#X connect 67 0 53 1;
#X connect 68 0 65 1;
#X connect 70 0 57 0;
#X connect 71 0 194 0;
#X connect 72 0 209 0;
#X connect 73 0 68 0;
#X connect 74 0 67 0;
#X connect 77 0 79 0;
#X connect 78 0 77 0;
#X connect 79 0 87 0;
#X connect 79 0 89 0;
#X connect 80 0 94 0;
#X connect 81 0 90 0;
#X connect 82 0 83 0;
#X connect 83 0 84 0;
#X connect 84 0 80 0;
#X connect 85 0 86 0;
#X connect 86 0 81 1;
#X connect 87 0 85 0;
#X connect 88 0 85 0;
#X connect 89 0 88 0;
#X connect 91 0 77 1;
#X connect 92 0 89 1;
#X connect 94 0 81 0;
#X connect 95 0 195 0;
#X connect 96 0 208 0;
#X connect 97 0 92 0;
#X connect 98 0 91 0;
#X connect 101 0 103 0;
#X connect 102 0 101 0;
#X connect 103 0 111 0;
#X connect 103 0 113 0;
#X connect 104 0 118 0;
#X connect 105 0 114 0;
#X connect 106 0 107 0;
#X connect 107 0 108 0;
#X connect 108 0 104 0;
#X connect 109 0 110 0;
#X connect 110 0 105 1;
#X connect 111 0 109 0;
#X connect 112 0 109 0;
#X connect 113 0 112 0;
#X connect 115 0 101 1;
#X connect 116 0 113 1;
#X connect 118 0 105 0;
#X connect 119 0 120 0;
#X connect 120 0 204 0;
#X connect 121 0 211 0;
#X connect 122 0 116 0;
#X connect 125 0 127 0;
#X connect 126 0 125 0;
#X connect 127 0 135 0;
#X connect 127 0 137 0;
#X connect 128 0 142 0;
#X connect 129 0 138 0;
#X connect 130 0 131 0;
#X connect 131 0 132 0;
#X connect 132 0 128 0;
#X connect 133 0 134 0;
#X connect 134 0 129 1;
#X connect 135 0 133 0;
#X connect 136 0 133 0;
#X connect 137 0 136 0;
#X connect 139 0 125 1;
#X connect 140 0 137 1;
#X connect 142 0 129 0;
#X connect 143 0 198 0;
#X connect 144 0 199 0;
#X connect 147 0 149 0;
#X connect 148 0 147 0;
#X connect 149 0 157 0;
#X connect 149 0 159 0;
#X connect 150 0 164 0;
#X connect 151 0 160 0;
#X connect 152 0 153 0;
#X connect 153 0 154 0;
#X connect 154 0 150 0;
#X connect 155 0 156 0;
#X connect 156 0 151 1;
#X connect 157 0 155 0;
#X connect 158 0 155 0;
#X connect 159 0 158 0;
#X connect 161 0 147 1;
#X connect 162 0 159 1;
#X connect 164 0 151 0;
#X connect 165 0 197 0;
#X connect 166 0 200 0;
#X connect 167 0 162 0;
#X connect 170 0 172 0;
#X connect 171 0 170 0;
#X connect 172 0 180 0;
#X connect 172 0 182 0;
#X connect 173 0 187 0;
#X connect 174 0 183 0;
#X connect 175 0 176 0;
#X connect 176 0 177 0;
#X connect 177 0 173 0;
#X connect 178 0 179 0;
#X connect 179 0 174 1;
#X connect 180 0 178 0;
#X connect 181 0 178 0;
#X connect 182 0 181 0;
#X connect 184 0 170 1;
#X connect 185 0 182 1;
#X connect 187 0 174 0;
#X connect 188 0 196 0;
#X connect 189 0 201 0;
#X connect 190 0 185 0;
#X connect 193 0 203 0;
#X connect 194 0 74 0;
#X connect 195 0 98 0;
#X connect 196 0 207 0;
#X connect 197 0 206 0;
#X connect 198 0 205 0;
#X connect 199 0 202 0;
#X connect 200 0 167 0;
#X connect 201 0 190 0;
#X connect 202 0 140 0;
#X connect 203 0 38 0;
#X connect 204 0 115 0;
#X connect 205 0 139 0;
#X connect 206 0 161 0;
#X connect 207 0 184 0;
#X connect 208 0 97 0;
#X connect 209 0 73 0;
#X connect 210 0 50 0;
#X connect 211 0 122 0;
